<?xml version="1.0" encoding="utf-8"?>
<!-- Generator: Adobe Illustrator 22.1.0, SVG Export Plug-In . SVG Version: 6.00 Build 0)  -->
<svg version="1.1" id="Layer_1" xmlns="http://www.w3.org/2000/svg" xmlns:xlink="http://www.w3.org/1999/xlink" x="0px" y="0px"
	 viewBox="0 0 231 73" style="enable-background:new 0 0 231 73;" xml:space="preserve">
<style type="text/css">
	.st0{fill:#232831;}
	.st1{fill:#33ABB4;}
</style>
<g>
	<polygon class="st0" points="182.9,41.7 199.6,12.9 218.7,46 203.9,46 201.1,41.2 210.4,41.2 199.6,22.5 185.7,46.4 	"/>
	<polygon class="st1" points="172.3,41 177.8,41 185.3,53.9 199.6,29 202.4,33.8 185.3,63.5 	"/>
</g>
<g>
	<path class="st0" d="M24.3,55.1v4.5h-7.1V27.1h-1.9v-4.5h7.4v32.5H24.3z"/>
	<path class="st0" d="M29.3,18.3l0.6,0.8L29.7,23L27.5,29l-2-0.4l0.9-10.3H29.3z M34.7,19.2L34.5,23L32.3,29l-2-0.4l0.9-10.3h2.9
		L34.7,19.2z"/>
	<path class="st0" d="M48.7,22.6c0,0,0.6,3.1,0.6,5.6c0,10.6-6.3,8.7-5.9,16.5h2.9v4.5h-8c0,0-0.1-0.7-0.2-1.6
		c-0.7-12.7,5.7-11.2,5.7-18.6c0-1.3-0.3-2-0.3-2h-7.5V17h5.4v5.5H48.7z"/>
	<path class="st0" d="M50.5,22.6h13.4v4.5h-2c0,0-0.6,1.1-0.6,4.7v17.5h-5.6V32.1c0-3.5,0.9-5,0.9-5h-6.2V22.6z"/>
	<path class="st0" d="M66.7,44.7c1.6,0,1.9-0.8,1.9-3.8V27.1h-3.1v-4.5H74v19.7c0,5.1-1.8,6.9-4.7,6.9h-4.8v-4.5H66.7z"/>
	<path class="st0" d="M91.9,22.6v26.6h-5.5V27.1h-8.7v-4.5H91.9z M77.8,31.2h5.5v18h-5.5V31.2z"/>
	<path class="st0" d="M105.7,41.9c0-3.6-1.3-4.8-1.5-7.8c-0.2-2.7,0.3-5.1,1-7h-3.2v-4.5h11.1v4.5h-2.7c-0.6,1.1-1.1,3.3-0.8,6.6
		c0.2,2.8,1.1,3.6,1.4,7.5c0.3,4.6-0.3,8.1-0.3,8.1h-5.7C105.1,49.2,105.7,46.5,105.7,41.9z"/>
	<path class="st0" d="M127.7,40.4c0,6.1-1.6,8.8-6.7,8.8h-6.1v-4.5h3.8c3,0,3.5-0.8,3.5-4.8V27.1H115v-4.5h12.7V40.4z"/>
	<path class="st0" d="M135.2,22.6c4.3,0,5.7,2.5,5.7,9.3v17.4h-5.5V32c0-4-0.7-4.8-2.8-4.8h-3v-4.5H135.2z"/>
	<path class="st0" d="M152.7,44.7h2.4V30c0-2.4-0.4-2.9-1.3-2.9l-4.4,22.2h-5.3c0,0,2.2-11.4,2.8-14.3c0.6-3.5,1.5-7.3-1.8-7.3h-1.7
		v-5h0.6c2.9,0,4.5,1.1,4.8,3.5h0.2l0.9-3.5h3.1c6.2,0,7.7,3.7,7.7,12.7v13.9h-7.9V44.7z"/>
</g>
</svg>
